<svg width="24" height="24" viewBox="0 0 24 24" fill="none" xmlns="http://www.w3.org/2000/svg">
<path d="M11.7716 3.74358C14.1131 1.4 17.9121 1.4 20.2552 3.74314C22.5383 6.02621 22.5968 9.69142 20.4308 12.0454L20.2427 12.2427L11.4426 21.0409L11.4061 21.0712C9.94483 22.3879 7.69083 22.3432 6.28346 20.9358C4.96444 19.6168 4.84232 17.5541 5.91711 16.0974C5.94045 16.0521 5.9687 16.0083 6.00191 15.9672L6.05547 15.9075L6.14237 15.8198L6.28346 15.6719L6.28637 15.6748L13.7221 8.22047C13.988 7.95385 14.4047 7.92909 14.6986 8.14656L14.7828 8.21906C15.0494 8.48497 15.0742 8.9016 14.8567 9.19551L14.7842 9.27972L7.18957 16.8928C6.47193 17.7684 6.52181 19.0627 7.33921 19.8801C8.16827 20.7091 9.48792 20.7486 10.3637 19.9985L19.1964 11.1681C20.9519 9.41041 20.9519 6.56116 19.1945 4.8038C17.4921 3.10136 14.7649 3.04816 12.9985 4.6442L12.8306 4.8038L12.818 4.81812L3.2817 14.3544C2.98881 14.6473 2.51394 14.6473 2.22104 14.3544C1.95478 14.0882 1.93057 13.6715 2.14843 13.3779L2.22104 13.2938L11.7699 3.74314L11.7716 3.74358Z" fill="#8A8A8A"/>
</svg>
