<svg width="20" height="20" viewBox="0 0 20 20" fill="none" xmlns="http://www.w3.org/2000/svg">
<path d="M9.40009 16.1612L9.4001 16.1612L16.5954 8.9659C16.7693 8.79195 16.6897 8.49233 16.4573 8.41169C15.608 8.11703 14.5032 7.56382 13.4697 6.53033C12.4362 5.49684 11.883 4.39202 11.5883 3.54271C11.5077 3.31028 11.2081 3.23067 11.0341 3.40463L3.83882 10.5999C3.26166 11.1771 2.97308 11.4656 2.7249 11.7838C2.43214 12.1592 2.18114 12.5653 1.97634 12.995C1.80273 13.3593 1.67368 13.7465 1.41556 14.5208L1.08204 15.5214L0.551711 17.1124L0.0544484 18.6042C-0.0725722 18.9852 0.0266047 19.4053 0.310631 19.6894C0.594658 19.9734 1.01478 20.0726 1.39584 19.9456L2.88763 19.4483L4.47862 18.918L5.47918 18.5844C6.25352 18.3263 6.6407 18.1973 7.00498 18.0237C7.43469 17.8189 7.84082 17.5679 8.21616 17.2751C8.53436 17.0269 8.82294 16.7383 9.40009 16.1612Z" fill="#C8504F"/>
<path d="M18.8482 6.71306C20.3839 5.17735 20.3839 2.68748 18.8482 1.15178C17.3125 -0.383926 14.8226 -0.383926 13.2869 1.15178L13.0556 1.3831C13.0509 1.38783 13.0627 1.376 13.0569 1.38206C12.8525 1.59341 12.7416 1.94701 12.7887 2.23719C12.79 2.24551 12.785 2.21771 12.787 2.22883C12.8221 2.42429 12.8871 2.71006 13.0054 3.05105C13.242 3.73298 13.6888 4.62816 14.5303 5.46967C15.3718 6.31118 16.267 6.75797 16.949 6.99456C17.2899 7.11286 17.5757 7.17789 17.7712 7.21297L17.7738 7.21345C17.7738 7.21344 17.7559 7.2102 17.7628 7.21132C18.053 7.25837 18.4066 7.14748 18.6179 6.94314C18.624 6.93728 18.6122 6.94912 18.6169 6.94438L18.8482 6.71306Z" fill="#C8504F"/>
</svg>
