<svg width="411" height="398" viewBox="0 0 411 398" fill="none" xmlns="http://www.w3.org/2000/svg">
<path d="M301.296 22.809C319.595 49.311 310.761 100.422 335.37 147.747C360.61 194.441 419.924 237.98 409.197 254.386C399.101 271.423 318.964 261.958 271.008 287.198C223.052 311.807 207.277 370.49 176.989 390.051C146.701 409.612 101.9 390.682 84.2316 356.608C66.5636 321.903 75.3976 272.054 57.7296 228.515C40.0616 184.976 -4.10839 147.116 0.308611 123.138C4.72561 98.529 57.7296 87.802 98.1136 68.241C137.867 48.68 164.369 20.916 200.967 7.66499C237.565 -4.95501 282.997 -3.06201 301.296 22.809Z" fill="url(#paint0_linear_25_2254)" fill-opacity="0.1"/>
<defs>
<linearGradient id="paint0_linear_25_2254" x1="0" y1="397.942" x2="397.666" y2="-12.3377" gradientUnits="userSpaceOnUse">
<stop stop-color="#2575C6"/>
<stop offset="1" stop-color="#1F35FB"/>
<stop offset="1" stop-color="#7B61FF"/>
</linearGradient>
</defs>
</svg>
